<?xml version="1.0" encoding="utf-8"?>
<!-- Generator: Adobe Illustrator 17.0.1, SVG Export Plug-In . SVG Version: 6.00 Build 0)  -->
<!DOCTYPE svg PUBLIC "-//W3C//DTD SVG 1.1//EN" "http://www.w3.org/Graphics/SVG/1.1/DTD/svg11.dtd">
<svg version="1.1" xmlns="http://www.w3.org/2000/svg" xmlns:xlink="http://www.w3.org/1999/xlink" x="0px" y="0px" width="640px"
	 height="440px" viewBox="0 0 640 440" enable-background="new 0 0 640 440" xml:space="preserve">
<g id="Walls">
	<g id="Walls_D">
		<polygon id="Wall_27_" fill="#787878" points="0,0 0,40 40,0 		"/>
		<polygon id="Wall_26_" fill="#787878" points="80,0 120,40 40,120 0,80 40,40 40,80 80,40 		"/>
		<polygon id="Wall_25_" fill="#787878" points="160,80 120,120 200,120 		"/>
		<polygon id="Wall_24_" fill="#787878" points="80,200 120,160 120,200 		"/>
		<path id="Wall_23_" fill="#787878" d="M480,280h-80l40-40h-80l-80,80v40l-40-40l-40,40v-40l-80-80H40l40,40H0v40h40L0,360l80,80
			h120v-40l40,40l40-40v40h120l80-80l-40-40h40V280z M160,400h-40l-40-40v-40h40l40,40V400z M400,360l-40,40h-40v-40l40-40h40V360z"
			/>
		<polygon id="Wall_22_" fill="#787878" points="280,120 320,80 360,120 		"/>
		<polygon id="Wall_21_" fill="#787878" points="360,160 360,200 400,200 		"/>
		<polygon id="Wall_20_" fill="#787878" points="400,0 360,40 440,120 480,80 440,40 440,80 400,40 		"/>
		<polygon id="Wall_19_" fill="#787878" points="440,0 480,40 480,0 		"/>
	</g>
	<g id="Walls_C">
		<path id="Wall_18_" fill="#787878" d="M240,0l-80,80l80,80l80-80L240,0z M200,80l40-40l40,40l-40,40L200,80z"/>
		<polygon id="Wall_17_" fill="#787878" points="40,120 80,80 160,160 120,200 120,160 80,120 80,160 		"/>
		<polygon id="Wall_16_" fill="#787878" points="160,200 320,200 280,240 320,280 280,280 280,320 240,280 200,320 200,280 160,280 
			200,240 		"/>
		<polygon id="Wall_15_" fill="#787878" points="0,160 40,200 40,240 0,280 		"/>
		<polygon id="Wall_14_" fill="#787878" points="480,160 440,200 440,240 480,280 		"/>
		<polygon id="Wall_13_" fill="#787878" points="320,160 360,200 360,160 400,120 400,160 440,120 400,80 		"/>
	</g>
	<g id="Walls_B">
		<polygon id="Wall_12_" fill="#787878" points="280,40 320,0 400,80 360,120 320,80 360,80 320,40 		"/>
		<polygon id="Wall_11_" fill="#787878" points="160,0 80,80 120,120 160,80 120,80 160,40 200,40 		"/>
		<polygon id="Wall_10_" fill="#787878" points="160,120 160,160 200,200 280,200 320,160 320,120 280,120 240,160 200,120 		"/>
		<polygon id="Wall_9_" fill="#787878" points="80,160 40,120 0,160 80,240 120,200 80,200 40,160 		"/>
		<polygon id="Wall_8_" fill="#787878" points="360,200 400,200 440,160 400,160 440,120 480,160 400,240 		"/>
	</g>
	<g id="Walls_A">
		<polygon id="Wall_7_" fill="#787878" points="0,40 40,0 80,40 40,80 40,40 		"/>
		<polygon id="Wall_6_" fill="#787878" points="200,40 160,40 120,80 160,80 		"/>
		<polygon id="Wall_5_" fill="#787878" points="280,40 320,40 360,80 320,80 		"/>
		<polygon id="Wall_4_" fill="#787878" points="160,160 160,200 120,240 120,200 		"/>
		<polygon id="Wall_3_" fill="#787878" points="80,120 120,160 80,200 40,160 80,160 		"/>
		<polygon id="Wall_2_" fill="#787878" points="400,120 360,160 400,200 440,160 400,160 		"/>
		<polygon id="Wall_1_" fill="#787878" points="320,160 320,200 360,240 360,200 		"/>
		<polygon id="Wall" fill="#787878" points="480,40 440,0 400,40 440,80 440,40 		"/>
	</g>
</g>
<g id="Neutral">
	<circle id="Button" fill="#D4D4D4" cx="540" cy="260" r="8"/>
	<rect id="Floor_2_" x="520" y="160" fill="#D4D4D4" width="40" height="40"/>
	<rect id="Green_Gate" x="520" y="120" fill="#00FF00" width="40" height="40"/>
	<circle id="Neutral_Flag_-_Taken" fill="#FFFF00" cx="540" cy="100" r="15"/>
	<circle id="Neutral_Flag" fill="#FFFF00" cx="540" cy="60" r="15"/>
	<circle id="Mars_Ball" fill="#705020" cx="520" cy="400" r="40"/>
	<circle id="Powerup_-_Speed" fill="#00FF00" cx="500" cy="180" r="15"/>
	<circle id="Powerup_-_TagPro" fill="#00FF00" cx="500" cy="220" r="15"/>
	<circle id="Powerup_-_Rolling_Bomb" fill="#00FF00" cx="500" cy="260" r="15"/>
	<circle id="Powerup_-_Juke_Juice" fill="#00FF00" cx="500" cy="300" r="15"/>
	<rect id="Gate" x="480" y="120" fill="#D4D4D4" width="40" height="40"/>
	<circle id="Bomb_-_Defused" fill="#FF8000" cx="500" cy="100" r="15"/>
	<circle id="Bomb" fill="#FF8000" cx="500" cy="60" r="15"/>
	<circle id="Spike" fill="#373737" cx="500" cy="20" r="15"/>
</g>
<g id="Blue">
	<rect id="Team_Tile" x="600" y="160" fill="#0000FF" width="40" height="40"/>
	<rect id="Endzone" x="600" y="200" fill="#0000FF" width="40" height="40"/>
	<rect id="Gate_1_" x="600" y="120" fill="#0000FF" width="40" height="40"/>
	<circle id="Taken_Flag" fill="#0000FF" cx="620" cy="100" r="15"/>
	<circle id="Flag" fill="#0000FF" cx="620" cy="60" r="15"/>
	<circle id="Ball" fill="#0000FF" cx="620" cy="20" r="19"/>
</g>
<g id="Red">
	<rect id="Endzone_1_" x="560" y="200" fill="#FF0000" width="40" height="40"/>
	<rect id="Team_Tile_1_" x="560" y="160" fill="#FF0000" width="40" height="40"/>
	<rect id="Gate_2_" x="560" y="120" fill="#FF0000" width="40" height="40"/>
	<circle id="Taken_Flag_1_" fill="#FF0000" cx="580" cy="100" r="15"/>
	<circle id="Flag_1_" fill="#FF0000" cx="580" cy="60" r="15"/>
	<circle id="Ball_1_" fill="#FF0000" cx="580" cy="20" r="19"/>
</g>
</svg>
